<svg xmlns="http://www.w3.org/2000/svg" width="512" height="512" viewBox="0 0 100 125" fill="#BED754">
<path d="M92.005,11.624C91.97,5.992,70.66,24.483,68.359,26.493c-12.232-5.868-26.149-5.828-38.404,0.048l-0.01,0.003 C27.555,24.456,6.359,6.077,6.324,11.695C6.095,19.478,5.792,27.261,6.11,35.046L6.099,35.05c0.427,10.36,1.702,20.69,4.244,30.75 c10.869,33.9,66.774,33.82,77.63-0.048c2.527-10.025,3.815-20.402,4.244-30.751C92.538,27.208,92.233,19.416,92.005,11.624z M23.388,55.393c1.037,0.895,2.385,1.44,3.862,1.44c3.268,0,5.917-2.648,5.917-5.916c0-3.269-2.649-5.917-5.917-5.917 c-0.759,0-1.482,0.148-2.149,0.409c1.55-1.506,3.661-2.436,5.993-2.436c4.752,0,8.605,3.854,8.605,8.606s-3.854,8.605-8.605,8.605 C27.712,60.186,24.794,58.229,23.388,55.393z M57.235,83.292c-3.227,0-6.014-1.888-7.336-4.61c-1.232,2.944-4.142,5.018-7.528,5.018 c-3.519,0-6.516-2.242-7.66-5.373l1.457-0.26c1.002,2.447,3.4,4.181,6.203,4.181c3.697,0,6.705-3.011,6.705-6.706 c0-2.396-1.273-4.484-3.168-5.674c0.113-0.486,0.173-0.982,0.181-1.492h7.065c-0.048,0.485-0.055,0.973,0.023,1.457 c-1.598,1.229-2.646,3.137-2.646,5.303c0,3.696,3.009,6.705,6.706,6.705c2.594,0,4.822-1.494,5.938-3.656l1.529,0.229 C63.438,81.279,60.569,83.292,57.235,83.292z M68.669,60.186c-3.11,0-5.825-1.655-7.337-4.128c0.862,0.491,1.857,0.775,2.921,0.775 c3.268,0,5.917-2.648,5.917-5.916c0-3.269-2.649-5.917-5.917-5.917c-0.439,0-0.866,0.051-1.278,0.142 c1.518-1.344,3.508-2.167,5.694-2.167c4.752,0,8.606,3.854,8.606,8.606C77.275,56.331,73.423,60.186,68.669,60.186z"/>
</svg>